Coordinates
version=1
nRows=13
nColumns=40
inDegrees=yes

Units are S.I. units (second, meters, Newtons, ...)
Angles are in degrees.

endheader
time	pelvis_tilt	pelvis_list	pelvis_rotation	pelvis_tx	pelvis_ty	pelvis_tz	hip_flexion_r	hip_adduction_r	hip_rotation_r	knee_angle_r	knee_angle_r_beta	ankle_angle_r	subtalar_angle_r	mtp_angle_r	hip_flexion_l	hip_adduction_l	hip_rotation_l	knee_angle_l	knee_angle_l_beta	ankle_angle_l	subtalar_angle_l	mtp_angle_l	lumbar_extension	lumbar_bending	lumbar_rotation	arm_flex_r	arm_add_r	arm_rot_r	elbow_flex_r	pro_sup_r	wrist_flex_r	wrist_dev_r	arm_flex_l	arm_add_l	arm_rot_l	elbow_flex_l	pro_sup_l	wrist_flex_l	wrist_dev_l
      1.08000000	     -4.24367606	      1.25181343	     -0.60133516	      0.01916989	      0.87788926	     -1.02296363	      2.42480246	     -4.79532106	    -12.86739769	    -49.10129849	     -0.85697933	    -14.10474281	    -10.57474570	     12.22427150	     28.90550357	     -1.68984653	      7.44239546	    -33.58891530	     -0.58623716	      6.11046586	     13.55766761	      7.85115143	     -1.04273312	     -4.12580413	     -0.10602608	     -2.75700306	     -9.06726345	    -14.38002862	     34.82133590	     89.95437384	      0.00000000	      0.00000000	     -4.67471924	      7.71293650	     20.55060346	     20.84903056	     89.95437384	      0.00000000	      0.00000000
      1.09000000	     -3.89994928	      0.89082595	     -0.12836663	      0.02901262	      0.87924051	     -1.02454358	      3.33943761	     -4.54862606	    -12.73462603	    -51.41193117	     -0.89730747	    -14.51213142	    -10.65119174	     12.04830368	     27.79205211	     -1.46090072	      7.52175199	    -33.56118025	     -0.58575310	      6.49255705	     13.09013642	      7.62894193	     -1.52761920	     -3.72888427	     -0.72133787	     -2.89867771	     -9.03179227	    -14.32435318	     34.39667544	     89.95437384	      0.00000000	      0.00000000	     -4.10312032	      7.85716400	     20.29783141	     21.27617270	     89.95437384	      0.00000000	      0.00000000
      1.10000000	     -4.21852662	      1.09947665	     -0.30165121	      0.03818188	      0.87951824	     -1.02561804	      5.58003653	     -4.93552054	    -12.13366512	    -54.38413040	     -0.94918214	    -14.61603696	    -13.77218425	     17.45209203	     27.36619154	     -1.65400966	      7.93105180	    -33.47889191	     -0.58431689	      7.32347897	     12.50051104	      6.81864756	     -1.20435451	     -3.94048689	     -0.59602701	     -2.89819844	     -8.99816684	    -14.11802378	     33.32432763	     89.95437384	      0.00000000	      0.00000000	     -3.62793462	      8.13870748	     19.40795413	     21.84937442	     89.95437384	      0.00000000	      0.00000000
      1.11000000	     -4.00054807	      1.13323312	     -0.14217388	      0.04769148	      0.88063697	     -1.02710536	      6.84284832	     -5.21024003	    -12.05968495	    -56.63733189	     -0.98850792	    -13.94972989	    -15.19171390	     17.42546612	     26.33047866	     -1.84513663	      8.01349604	    -33.31241056	     -0.58141125	      8.01223433	     12.18189641	      6.59429718	     -1.52598036	     -3.93825699	     -0.94673606	     -2.83336443	     -8.97698852	    -13.89847314	     32.50890925	     89.95437384	      0.00000000	      0.00000000	     -3.03491358	      8.32318836	     19.23386893	     22.31859812	     89.95437384	      0.00000000	      0.00000000
      1.12000000	     -3.83746162	      1.10152295	     -0.07549545	      0.05687129	      0.88171712	     -1.02837204	      8.28658378	     -5.42409956	    -12.00346843	    -58.79636472	     -1.02619015	    -13.29668326	    -16.64607900	     17.62935644	     25.36512658	     -1.95750301	      7.97147031	    -33.09793534	     -0.57766795	      8.46521819	     12.00333177	      6.39575802	     -1.82395285	     -3.85531331	     -1.21027329	     -2.74875207	     -8.96450154	    -13.65594215	     31.73067758	     89.95437384	      0.00000000	      0.00000000	     -2.45910977	      8.50580512	     19.12615801	     23.00346971	     89.95437384	      0.00000000	      0.00000000
      1.13000000	     -3.87850353	      1.20798179	     -0.00225520	      0.06604025	      0.88234974	     -1.02991255	     10.06294931	     -5.88570259	    -11.99020092	    -60.90864696	     -1.06305643	    -12.94748695	    -17.48455474	     18.74420879	     24.67886174	     -2.30200231	      7.78264444	    -32.97008666	     -0.57543657	      8.88162155	     12.20091762	      6.10842750	     -1.86791399	     -3.90661744	     -1.53169605	     -2.71902430	     -9.00801248	    -13.35695743	     31.02124387	     89.95437384	      0.00000000	      0.00000000	     -2.09315266	      8.70359527	     18.87316743	     23.87387865	     89.95437384	      0.00000000	      0.00000000
      1.14000000	     -3.75708373	      1.07699439	      0.22577342	      0.07514475	      0.88337836	     -1.03115852	     11.50018036	     -5.96205519	    -12.08421487	    -62.66655802	     -1.09373777	    -11.67219236	    -17.81665374	     21.94827851	     23.81109730	     -2.48370315	      7.23186424	    -32.80661131	     -0.57258338	      9.34182676	     12.83177767	      5.52190728	     -2.11260351	     -3.72407129	     -2.00868508	     -2.60841624	     -8.99984951	    -13.09247074	     30.28825549	     89.95437384	      0.00000000	      0.00000000	     -1.50926604	      8.92424442	     18.84796014	     24.49023807	     89.95437384	      0.00000000	      0.00000000
      1.15000000	     -3.41254117	      0.74049268	      0.38524214	      0.08441757	      0.88469230	     -1.03222893	     12.64003966	     -5.80863159	    -12.20167250	    -63.98983141	     -1.11683325	    -11.14617756	    -18.05754358	     21.66891887	     22.72240776	     -2.25620984	      7.07475092	    -32.76125729	     -0.57179181	      9.59607507	     12.56765336	      5.39281401	     -2.59303625	     -3.29216467	     -2.34076753	     -2.68098339	     -9.01751400	    -13.07590679	     29.91620301	     89.95437384	      0.00000000	      0.00000000	     -0.86091763	      9.09688209	     18.81431530	     25.09187949	     89.95437384	      0.00000000	      0.00000000
      1.16000000	     -3.32003514	      0.79093794	      0.48830865	      0.09354711	      0.88560748	     -1.03319902	     14.16028401	     -5.90549403	    -11.95627594	    -65.34386912	     -1.14046566	     -9.09052696	    -18.31917784	     23.91082245	     21.78625951	     -2.59632409	      6.53037003	    -32.48045716	     -0.56689092	     10.36757016	     13.03077648	      4.66825500	     -2.75783915	     -3.34103065	     -2.78079503	     -2.48333434	     -8.90969367	    -13.09449260	     29.04153188	     89.95437384	      0.00000000	      0.00000000	     -0.51587299	      9.33168641	     19.11342965	     26.13296587	     89.95437384	      0.00000000	      0.00000000
      1.17000000	     -3.10520044	      0.50424698	      0.67365529	      0.10271169	      0.88677488	     -1.03402134	     15.39225755	     -5.74191435	    -12.11091293	    -66.20094686	     -1.15542449	     -8.71480840	    -18.39949777	     23.55941987	     20.76599163	     -2.35982685	      6.46852025	    -32.29873294	     -0.56371923	     10.58068305	     12.76072918	      4.56561075	     -3.05704390	     -2.99075352	     -3.16711438	     -2.61495522	     -8.89106633	    -13.11729331	     28.76706512	     89.95437384	      0.00000000	      0.00000000	      0.07878446	      9.57484897	     19.12361054	     26.74944664	     89.95437384	      0.00000000	      0.00000000
      1.18000000	     -2.98041652	      0.39162439	      0.81697783	      0.11202365	      0.88783475	     -1.03466304	     16.63887565	     -5.55212680	    -11.92749207	    -66.78081309	     -1.16554507	     -7.39497482	    -18.52694289	     23.27458945	     19.67984030	     -2.35672456	      6.18365900	    -31.85919455	     -0.55604784	     11.35298127	     12.37368786	      4.34055424	     -3.18697502	     -2.88261574	     -3.57467330	     -2.54191703	     -8.74751262	    -13.29056339	     28.04967731	     89.95437384	      0.00000000	      0.00000000	      0.40204960	      9.84205112	     19.31799499	     27.81111958	     89.95437384	      0.00000000	      0.00000000
      1.19000000	     -2.83752785	      0.16930338	      1.04175501	      0.12074433	      0.88890038	     -1.03553990	     17.97628159	     -5.46880718	    -12.12576539	    -67.26846672	     -1.17405623	     -6.63585108	    -18.50379205	     22.90845896	     18.74722684	     -2.14450783	      6.25579173	    -31.60273368	     -0.55157176	     11.43751886	     12.10888026	      4.25001319	     -3.42751100	     -2.58971367	     -3.98220438	     -2.67899831	     -8.71050992	    -13.36588695	     27.88445777	     89.95437384	      0.00000000	      0.00000000	      1.00168821	     10.07983602	     19.36066548	     28.50334395	     89.95437384	      0.00000000	      0.00000000
      1.20000000	     -2.75530156	      0.11527348	      1.19349193	      0.13004313	      0.88994610	     -1.03596332	     19.13978780	     -5.32302314	    -12.05216292	    -67.31612089	     -1.17488795	     -4.33127059	    -18.43675017	     22.55674144	     17.65908625	     -2.11544263	      6.15406675	    -31.04213069	     -0.54178739	     11.98954175	     11.55279289	      3.99841920	     -3.49601156	     -2.56784286	     -4.37935203	     -2.67809786	     -8.50097875	    -13.82361470	     27.26636808	     89.95437384	      0.00000000	      0.00000000	      1.22868132	     10.35136091	     19.69536533	     29.77127629	     89.95437384	      0.00000000	      0.00000000
